<svg width="280" height="280" viewBox="0 0 280 280" fill="none" xmlns="http://www.w3.org/2000/svg">
<path fill-rule="evenodd" clip-rule="evenodd" d="M133.5 84.5C142.814 82.7269 146.647 86.3935 145 95.5C135.906 112.028 126.572 128.362 117 144.5C111.249 149.984 106.249 149.317 102 142.5C101.333 140.833 101.333 139.167 102 137.5C111.547 119.041 122.047 101.375 133.5 84.5Z" fill="#C1F24D"/>
<path fill-rule="evenodd" clip-rule="evenodd" d="M223.5 84.5C233.539 83.6972 237.039 88.0305 234 97.5C225.347 112.801 216.681 128.135 208 143.5C203.387 149.737 198.387 150.071 193 144.5C191.578 141.97 191.245 139.303 192 136.5C200.52 122.794 208.52 108.794 216 94.5C218.289 90.8812 220.789 87.5479 223.5 84.5Z" fill="#C0F14D"/>
<path fill-rule="evenodd" clip-rule="evenodd" d="M75.5 120.5C83.9885 119.618 87.8218 123.285 87 131.5C77.9057 148.028 68.5724 164.362 59 180.5C56.0453 184.277 52.212 185.443 47.5 184C43.8697 180.95 42.703 177.117 44 172.5C53 156.5 62 140.5 71 124.5C72.3968 122.93 73.8968 121.596 75.5 120.5Z" fill="#C0F14D"/>
<path fill-rule="evenodd" clip-rule="evenodd" d="M165.5 120.5C174.164 119.332 177.997 122.999 177 131.5C167.414 147.671 158.08 164.004 149 180.5C146.398 184.212 142.898 185.378 138.5 184C133.931 181.459 132.431 177.625 134 172.5C143.572 156.362 152.906 140.028 162 123.5C163.145 122.364 164.312 121.364 165.5 120.5Z" fill="#C1F24D"/>
</svg>
